# xmcd
#
# Track frame offsets:
#	150
#	10430
#	23402
#	32481
#	40663
#	53519
#	62362
#	76109
#	86520
#	96091
#	107069
#	117467
#	134548
#	145246
#	166822
#	182961
#	207219
#	232970
#	248390
#	263145
#	276460
#	300026
#	315307
#	335485
#
# Disc length: 4676 seconds
#
# Revision: 0
# Processed by: cddbd v1.4PL0 Copyright (c) Steve Scherf et al.
# Submitted via: dBpowerAMP V4.0
#
DISCID=2b124218
DTITLE=Михаил Щербаков - Российские барды -- Щербаков
DYEAR=1900
DGENRE=Chanson
TTITLE0=Песня о тройке
TTITLE1=Прощальная 2
TTITLE2=Аллилуйя
TTITLE3=Трубач
TTITLE4=Аэродром
TTITLE5=Заклинание
TTITLE6=Рождество
TTITLE7=Очнулся утром...
TTITLE8="Балтийские волны"
TTITLE9=Австралия
TTITLE10=Пьесса
TTITLE11=Подросток
TTITLE12=Chinatown
TTITLE13=Ночной дозор
TTITLE14=Чужая музыка 2
TTITLE15=Варьете
TTITLE16=Два слова рыбы
TTITLE17=Интермедия 4
TTITLE18=Неразменная бабочка
TTITLE19="Полет валькирий"
TTITLE20=Тирренское море
TTITLE21=Гостинница
TTITLE22=После детства
TTITLE23=Эпилог
EXTD=Submited by Vitaliy Chikharin\nИнформация предоставлена Виталием Чихариным
EXTT0=
EXTT1=
EXTT2=
EXTT3=
EXTT4=
EXTT5=
EXTT6=
EXTT7=
EXTT8=
EXTT9=
EXTT10=
EXTT11=
EXTT12=
EXTT13=
EXTT14=
EXTT15=
EXTT16=
EXTT17=
EXTT18=
EXTT19=
EXTT20=
EXTT21=
EXTT22=
EXTT23=
PLAYORDER=
